<svg xmlns="http://www.w3.org/2000/svg" viewBox="0 0 750 500"><g id="freepik--background-complete--inject-2"><g><g><g><g><path d="M673.734,319.613h-180.746c-3.232,0-5.862-2.63-5.862-5.862V50.477c0-3.232,2.63-5.862,5.862-5.862h180.746c3.232,0,5.862,2.629,5.862,5.862V313.751c0,3.233-2.63,5.862-5.862,5.862ZM492.988,44.866c-3.095,0-5.612,2.518-5.612,5.612V313.751c0,3.095,2.518,5.612,5.612,5.612h180.746c3.095,0,5.612-2.518,5.612-5.612V50.477c0-3.094-2.518-5.612-5.612-5.612h-180.746Z" style="fill:#e0e0e0;"></path><path d="M465.306,319.613h-180.747c-3.232,0-5.862-2.63-5.862-5.862V50.477c0-3.232,2.629-5.862,5.862-5.862h180.747c3.232,0,5.862,2.629,5.862,5.862V313.751c0,3.233-2.63,5.862-5.862,5.862ZM284.559,44.866c-3.094,0-5.612,2.518-5.612,5.612V313.751c0,3.095,2.518,5.612,5.612,5.612h180.747c3.095,0,5.612-2.518,5.612-5.612V50.477c0-3.094-2.518-5.612-5.612-5.612h-180.747Z" style="fill:#e0e0e0;"></path></g><path d="M257.012,319.613H76.266c-3.232,0-5.862-2.63-5.862-5.862V50.477c0-3.232,2.629-5.862,5.862-5.862h180.746c3.232,0,5.862,2.629,5.862,5.862V313.751c0,3.233-2.63,5.862-5.862,5.862ZM76.266,44.866c-3.094,0-5.612,2.518-5.612,5.612V313.751c0,3.095,2.518,5.612,5.612,5.612h180.746c3.095,0,5.612-2.518,5.612-5.612V50.477c0-3.094-2.517-5.612-5.612-5.612H76.266Z" style="fill:#e0e0e0;"></path></g><rect y="380.683" width="750" height=".12" style="fill:#e0e0e0;"></rect></g><g><rect x="653.626" y="410.059" width="55.729" height=".421" style="fill:#ebebeb;"></rect><rect x="495.044" y="414.624" width="14.627" height=".421" style="fill:#ebebeb;"></rect><rect x="40.645" y="397.261" width="72.675" height=".421" style="fill:#ebebeb;"></rect><rect x="128.299" y="397.261" width="10.655" height=".421" style="fill:#ebebeb;"></rect><rect x="173.586" y="404.365" width="157.613" height=".421" style="fill:#ebebeb;"></rect></g></g><g><path d="M82.707,341.945l-11.928,10.966,44.071,47.204s17.907-14.64,5.369-32.839c-12.538-18.199-28.796-25.133-37.512-25.332Z" style="fill:#e0e0e0;"></path><path d="M88.101,315.963c2.477,1.694,4.384,4.561,5.617,7.256,1.277,2.79,1.976,5.798,2.029,8.867,.106,6.125-2.648,12.159-7.149,16.268-2.062,1.883-5.004-1.309-2.938-3.195,3.618-3.304,5.747-8.001,5.753-12.913,.003-2.357-.524-4.738-1.488-6.887-.902-2.012-2.262-4.44-4.125-5.713-2.303-1.575-.008-5.261,2.3-3.683h0Z" style="fill:#e0e0e0;"></path><path d="M126.122,335.963c-9.32,3.194-16.63,11.115-19.35,20.533-.777,2.691-4.925,1.407-4.15-1.276,3.184-11.024,11.766-19.795,22.576-23.499,1.118-.383,2.342,.612,2.583,1.659,.287,1.25-.557,2.205-1.659,2.583h0Z" style="fill:#e0e0e0;"></path><path d="M138.758,366.574c-8.386-3.407-17.976-2.875-25.898,1.524-2.441,1.356-4.429-2.505-1.984-3.863,8.813-4.894,19.809-5.61,29.158-1.812,1.085,.441,1.802,1.524,1.437,2.713-.321,1.045-1.622,1.88-2.713,1.437h0Z" style="fill:#e0e0e0;"></path><path d="M55.717,366.76l11.928-10.967,43.344,47.872s-16.089,16.617-33.173,2.598-22.632-30.801-22.099-39.503Z" style="fill:#e0e0e0;"></path><path d="M33.237,367.974c1.086,1.916,3.322,3.449,5.198,4.507,2.103,1.186,4.48,1.942,6.888,2.142,4.895,.406,9.754-1.321,13.349-4.65,2.05-1.898,4.991,1.295,2.938,3.196-4.472,4.14-10.716,6.379-16.81,5.76-3.051-.31-5.996-1.255-8.665-2.765-2.581-1.461-5.278-3.593-6.76-6.206-1.377-2.429,2.484-4.415,3.863-1.984h0Z" style="fill:#e0e0e0;"></path><path d="M41.967,408.245c4.597-10.46,14.056-18.278,25.308-20.527,2.736-.547,3.673,3.693,.924,4.242-9.613,1.921-18.119,8.542-22.083,17.561-.475,1.081-1.498,1.796-2.713,1.437-1.024-.303-1.908-1.642-1.437-2.713h0Z" style="fill:#e0e0e0;"></path><path d="M71.319,425.603c-3.001-9.634-1.366-20.532,4.249-28.904,1.556-2.319,5.241-.022,3.683,2.3-5.048,7.525-6.382,17.037-3.69,25.679,.349,1.119-.585,2.349-1.659,2.583-1.228,.267-2.233-.536-2.583-1.659h0Z" style="fill:#e0e0e0;"></path><path d="M79.698,340.147c.159,.354-12.392-10.39-23.049-.592-10.657,9.798-2.595,24.178-2.595,24.178l25.644-23.586Z" style="fill:#e0e0e0;"></path></g><path d="M576.479,78.665c-1.925,2.932-3.22,6.152-3.91,9.474l-5.291,.498v10.245l5.291,.499c.689,3.321,1.984,6.541,3.909,9.474l-3.379,4.081,7.245,7.245,4.081-3.379c2.932,1.925,6.153,3.22,9.474,3.909l.498,5.291h10.245l.498-5.29c3.322-.69,6.542-1.985,9.474-3.91l4.081,3.379,7.245-7.245-3.379-4.082c1.925-2.932,3.22-6.152,3.909-9.474l5.29-.499v-10.245l-5.29-.499c-.69-3.321-1.985-6.541-3.91-9.473l3.379-4.081-7.245-7.245-4.081,3.379c-2.932-1.925-6.153-3.221-9.473-3.91l-.499-5.29h-10.245l-.498,5.291c-3.321,.69-6.541,1.984-9.473,3.909l-4.081-3.379-7.245,7.245,3.379,4.082Zm32.755,5.18c5.126,5.127,5.127,13.439,0,18.566-5.127,5.127-13.44,5.126-18.566,0-5.127-5.127-5.127-13.439,0-18.566,5.127-5.127,13.439-5.127,18.566,0Z" style="fill:#e0e0e0;"></path><path d="M642.888,78.8c-1.138,1.733-1.903,3.636-2.311,5.599l-3.127,.294v6.055l3.127,.295c.407,1.963,1.173,3.866,2.31,5.599l-1.997,2.412,4.282,4.282,2.412-1.997c1.733,1.138,3.636,1.903,5.599,2.311l.294,3.127h6.055l.295-3.127c1.963-.408,3.866-1.173,5.599-2.311l2.412,1.997,4.282-4.282-1.997-2.412c1.138-1.733,1.903-3.636,2.31-5.599l3.126-.295v-6.055l-3.126-.295c-.408-1.963-1.173-3.866-2.311-5.599l1.997-2.412-4.282-4.282-2.412,1.997c-1.733-1.138-3.636-1.904-5.599-2.311l-.295-3.127h-6.055l-.294,3.127c-1.963,.408-3.866,1.173-5.599,2.31l-2.412-1.997-4.282,4.282,1.997,2.412Zm19.359,3.061c3.03,3.03,3.03,7.943,0,10.973-3.03,3.03-7.943,3.03-10.973,0s-3.03-7.943,0-10.973c3.03-3.03,7.943-3.03,10.973,0Z" style="fill:#f0f0f0;"></path><path d="M85.521,132.23c-1.138,1.733-1.903,3.636-2.311,5.599l-3.127,.294v6.055l3.127,.295c.407,1.963,1.173,3.866,2.31,5.599l-1.997,2.412,4.282,4.282,2.412-1.997c1.733,1.138,3.636,1.903,5.599,2.311l.294,3.127h6.055l.295-3.127c1.963-.408,3.866-1.173,5.599-2.311l2.412,1.997,4.282-4.282-1.997-2.412c1.138-1.733,1.903-3.636,2.31-5.599l3.126-.295v-6.055l-3.126-.295c-.408-1.963-1.173-3.866-2.311-5.599l1.997-2.412-4.282-4.282-2.412,1.997c-1.733-1.138-3.636-1.904-5.599-2.311l-.295-3.127h-6.055l-.294,3.127c-1.963,.408-3.866,1.173-5.599,2.311l-2.412-1.997-4.282,4.282,1.997,2.412Zm19.359,3.062c3.03,3.03,3.03,7.943,0,10.973-3.03,3.03-7.943,3.03-10.973,0s-3.03-7.943,0-10.973c3.03-3.03,7.943-3.03,10.973,0Z" style="fill:#f0f0f0;"></path><path d="M162.378,406.13c-1.933,2.944-3.234,6.178-3.926,9.514l-5.313,.5v10.289l5.314,.501c.692,3.335,1.993,6.569,3.926,9.514l-3.394,4.099,7.276,7.275,4.099-3.393c2.945,1.933,6.179,3.234,9.514,3.926l.5,5.313h10.289l.501-5.313c3.336-.693,6.57-1.993,9.514-3.926l4.099,3.393,7.276-7.276-3.393-4.099c1.933-2.945,3.234-6.179,3.926-9.514l5.312-.501v-10.289l-5.312-.501c-.693-3.335-1.993-6.569-3.927-9.514l3.394-4.099-7.276-7.275-4.099,3.393c-2.945-1.933-6.179-3.234-9.514-3.927l-.501-5.313h-10.289l-.5,5.313c-3.335,.693-6.569,1.993-9.514,3.926l-4.099-3.393-7.276,7.276,3.394,4.099Zm32.895,5.202c5.148,5.148,5.149,13.497,0,18.645-5.149,5.149-13.497,5.149-18.646,0s-5.149-13.496,0-18.646c5.149-5.149,13.496-5.149,18.645,0Z" style="fill:#f0f0f0;"></path></g><g id="freepik--Shadow--inject-2"><ellipse cx="372.69" cy="466.2" rx="285.376" ry="5.907" style="fill:#f5f5f5;"></ellipse></g><g id="freepik--Gears_2--inject-2"><g><path d="M474.597,404.293c-1.013,2.947-1.419,6.003-1.282,9.014l-4.444,1.592,2.252,8.818,4.664-.734c1.323,2.707,3.146,5.194,5.448,7.294l-2.011,4.256,7.828,4.643,2.77-3.805c2.947,1.012,6.004,1.419,9.014,1.282l1.592,4.444,8.818-2.253-.734-4.663c2.707-1.324,5.194-3.147,7.295-5.448l4.256,2.011,4.643-7.828-3.805-2.77c1.012-2.947,1.419-6.003,1.282-9.014l4.443-1.592-2.252-8.818-4.663,.734c-1.324-2.707-3.147-5.194-5.448-7.294l2.011-4.256-7.828-4.643-2.77,3.806c-2.947-1.013-6.004-1.42-9.014-1.283l-1.592-4.444-8.818,2.253,.734,4.663c-2.707,1.324-5.194,3.146-7.294,5.448l-4.256-2.011-4.643,7.829,3.806,2.77Zm29.193-2.261c5.626,3.337,7.482,10.603,4.145,16.229-3.337,5.627-10.604,7.482-16.229,4.146-5.627-3.337-7.482-10.603-4.145-16.229,3.337-5.626,10.602-7.482,16.229-4.145Z" style="fill:#8A2BE2;"></path><path d="M474.597,404.293c-1.013,2.947-1.419,6.003-1.282,9.014l-4.444,1.592,2.252,8.818,4.664-.734c1.323,2.707,3.146,5.194,5.448,7.294l-2.011,4.256,7.828,4.643,2.77-3.805c2.947,1.012,6.004,1.419,9.014,1.282l1.592,4.444,8.818-2.253-.734-4.663c2.707-1.324,5.194-3.147,7.295-5.448l4.256,2.011,4.643-7.828-3.805-2.77c1.012-2.947,1.419-6.003,1.282-9.014l4.443-1.592-2.252-8.818-4.663,.734c-1.324-2.707-3.147-5.194-5.448-7.294l2.011-4.256-7.828-4.643-2.77,3.806c-2.947-1.013-6.004-1.42-9.014-1.283l-1.592-4.444-8.818,2.253,.734,4.663c-2.707,1.324-5.194,3.146-7.294,5.448l-4.256-2.011-4.643,7.829,3.806,2.77Zm29.193-2.261c5.626,3.337,7.482,10.603,4.145,16.229-3.337,5.627-10.604,7.482-16.229,4.146-5.627-3.337-7.482-10.603-4.145-16.229,3.337-5.626,10.602-7.482,16.229-4.145Z" style="fill:#fff; opacity:.4;"></path></g><g><path d="M534.095,425.883c-.606,1.764-.849,3.593-.767,5.395l-2.66,.953,1.348,5.278,2.791-.44c.792,1.62,1.883,3.109,3.261,4.366l-1.204,2.547,4.686,2.779,1.658-2.278c1.764,.606,3.593,.849,5.395,.767l.953,2.66,5.278-1.349-.439-2.791c1.62-.793,3.109-1.883,4.366-3.261l2.547,1.203,2.779-4.686-2.278-1.658c.606-1.764,.849-3.593,.767-5.395l2.659-.953-1.348-5.278-2.791,.439c-.792-1.62-1.883-3.109-3.261-4.366l1.204-2.547-4.686-2.779-1.658,2.278c-1.764-.606-3.594-.85-5.395-.768l-.953-2.66-5.278,1.348,.439,2.791c-1.62,.792-3.109,1.883-4.366,3.26l-2.547-1.204-2.779,4.686,2.278,1.658Zm17.473-1.353c3.367,1.997,4.478,6.346,2.481,9.713-1.997,3.368-6.346,4.478-9.714,2.481-3.368-1.997-4.478-6.346-2.481-9.713,1.997-3.367,6.346-4.478,9.713-2.481Z" style="fill:#8A2BE2;"></path><path d="M534.095,425.883c-.606,1.764-.849,3.593-.767,5.395l-2.66,.953,1.348,5.278,2.791-.44c.792,1.62,1.883,3.109,3.261,4.366l-1.204,2.547,4.686,2.779,1.658-2.278c1.764,.606,3.593,.849,5.395,.767l.953,2.66,5.278-1.349-.439-2.791c1.62-.793,3.109-1.883,4.366-3.261l2.547,1.203,2.779-4.686-2.278-1.658c.606-1.764,.849-3.593,.767-5.395l2.659-.953-1.348-5.278-2.791,.439c-.792-1.62-1.883-3.109-3.261-4.366l1.204-2.547-4.686-2.779-1.658,2.278c-1.764-.606-3.594-.85-5.395-.768l-.953-2.66-5.278,1.348,.439,2.791c-1.62,.792-3.109,1.883-4.366,3.26l-2.547-1.204-2.779,4.686,2.278,1.658Zm17.473-1.353c3.367,1.997,4.478,6.346,2.481,9.713-1.997,3.368-6.346,4.478-9.714,2.481-3.368-1.997-4.478-6.346-2.481-9.713,1.997-3.367,6.346-4.478,9.713-2.481Z" style="fill:#fff; opacity:.7;"></path></g><g><path d="M314.352,76.512c-2.371,3.612-3.966,7.579-4.816,11.671l-6.517,.613v12.621l6.518,.614c.849,4.091,2.444,8.058,4.816,11.67l-4.162,5.028,8.924,8.924,5.028-4.162c3.612,2.371,7.579,3.966,11.67,4.816l.614,6.518h12.621l.614-6.517c4.092-.85,8.058-2.445,11.671-4.816l5.028,4.162,8.925-8.924-4.162-5.028c2.371-3.612,3.966-7.579,4.816-11.67l6.516-.614v-12.621l-6.516-.614c-.85-4.091-2.445-8.058-4.817-11.67l4.162-5.028-8.924-8.924-5.028,4.162c-3.612-2.372-7.58-3.967-11.67-4.817l-.614-6.517h-12.621l-.614,6.518c-4.091,.85-8.058,2.444-11.67,4.816l-5.028-4.162-8.925,8.925,4.162,5.028Zm39.999,6.981c6.413,6.414,6.414,16.813,0,23.227-6.415,6.414-16.814,6.414-23.227,0-6.414-6.414-6.414-16.813,0-23.228,6.414-6.414,16.812-6.414,23.227,0Z" style="fill:#8A2BE2;"></path><path d="M314.352,76.512c-2.371,3.612-3.966,7.579-4.816,11.671l-6.517,.613v12.621l6.518,.614c.849,4.091,2.444,8.058,4.816,11.67l-4.162,5.028,8.924,8.924,5.028-4.162c3.612,2.371,7.579,3.966,11.67,4.816l.614,6.518h12.621l.614-6.517c4.092-.85,8.058-2.445,11.671-4.816l5.028,4.162,8.925-8.924-4.162-5.028c2.371-3.612,3.966-7.579,4.816-11.67l6.516-.614v-12.621l-6.516-.614c-.85-4.091-2.445-8.058-4.817-11.67l4.162-5.028-8.924-8.924-5.028,4.162c-3.612-2.372-7.58-3.967-11.67-4.817l-.614-6.517h-12.621l-.614,6.518c-4.091,.85-8.058,2.444-11.67,4.816l-5.028-4.162-8.925,8.925,4.162,5.028Zm39.999,6.981c6.413,6.414,6.414,16.813,0,23.227-6.415,6.414-16.814,6.414-23.227,0-6.414-6.414-6.414-16.813,0-23.228,6.414-6.414,16.812-6.414,23.227,0Z" style="fill:#fff; opacity:.4;"></path></g><g><path d="M257.924,50.894c-1.355,2.063-2.266,4.33-2.752,6.668l-3.723,.351v7.211l3.724,.351c.485,2.337,1.396,4.603,2.751,6.667l-2.378,2.872,5.099,5.099,2.872-2.378c2.064,1.355,4.33,2.266,6.667,2.751l.351,3.724h7.21l.351-3.724c2.338-.486,4.604-1.397,6.668-2.752l2.873,2.378,5.099-5.099-2.378-2.873c1.355-2.064,2.266-4.33,2.751-6.668l3.723-.351v-7.211l-3.723-.351c-.485-2.337-1.397-4.604-2.752-6.667l2.378-2.872-5.099-5.099-2.872,2.378c-2.064-1.355-4.33-2.267-6.667-2.752l-.351-3.724h-7.211l-.351,3.724c-2.337,.485-4.604,1.396-6.667,2.751l-2.873-2.378-5.099,5.099,2.378,2.873Zm22.852,3.988c3.664,3.664,3.664,9.606,0,13.27-3.665,3.665-9.606,3.664-13.27,0-3.665-3.665-3.665-9.606,0-13.27,3.665-3.664,9.606-3.665,13.27,0Z" style="fill:#8A2BE2;"></path><path d="M257.924,50.894c-1.355,2.063-2.266,4.33-2.752,6.668l-3.723,.351v7.211l3.724,.351c.485,2.337,1.396,4.603,2.751,6.667l-2.378,2.872,5.099,5.099,2.872-2.378c2.064,1.355,4.33,2.266,6.667,2.751l.351,3.724h7.21l.351-3.724c2.338-.486,4.604-1.397,6.668-2.752l2.873,2.378,5.099-5.099-2.378-2.873c1.355-2.064,2.266-4.33,2.751-6.668l3.723-.351v-7.211l-3.723-.351c-.485-2.337-1.397-4.604-2.752-6.667l2.378-2.872-5.099-5.099-2.872,2.378c-2.064-1.355-4.33-2.267-6.667-2.752l-.351-3.724h-7.211l-.351,3.724c-2.337,.485-4.604,1.396-6.667,2.751l-2.873-2.378-5.099,5.099,2.378,2.873Zm22.852,3.988c3.664,3.664,3.664,9.606,0,13.27-3.665,3.665-9.606,3.664-13.27,0-3.665-3.665-3.665-9.606,0-13.27,3.665-3.664,9.606-3.665,13.27,0Z" style="fill:#fff; opacity:.7;"></path></g></g><g id="freepik--Device--inject-2"><g><rect x="132.932" y="106.246" width="433.667" height="302.044" rx="19.252" ry="19.252" style="fill:#263238;"></rect><path d="M149.981,113.951h398.156c6.215,0,11.262,5.046,11.262,11.262v234.177H142.343V121.588c0-4.215,3.422-7.637,7.637-7.637Z" style="fill:#fff; opacity:.1;"></path><path d="M132.932,359.05h433.667v30.654c0,10.257-8.328,18.585-18.585,18.585H151.355c-10.168,0-18.423-8.255-18.423-18.423v-30.816h0Z" style="fill:#fff; opacity:.8;"></path><g><polygon points="442.229 465.215 266.185 465.215 277.926 408.29 427.44 408.29 442.229 465.215" style="fill:#263238;"></polygon><polygon points="442.229 465.215 266.185 465.215 277.926 408.29 427.44 408.29 442.229 465.215" style="fill:#fff; opacity:.8;"></polygon><polygon points="430.417 419.752 275.471 419.752 277.926 408.29 427.44 408.29 430.417 419.752" style="opacity:.2;"></polygon></g></g><path d="M459.335,408.664h-195.962c-.207,0-.375-.168-.375-.375s.168-.375,.375-.375h195.962c.207,0,.375,.168,.375,.375s-.168,.375-.375,.375Z" style="fill:#263238;"></path></g><g id="freepik--Gear_1--inject-2"><path d="M103.293,197.852c-4.165,6.342-6.965,13.309-8.458,20.494l-11.444,1.077v22.163l11.445,1.079c1.49,7.183,4.292,14.15,8.457,20.494l-7.31,8.829,15.672,15.672,8.829-7.309c6.343,4.164,13.309,6.966,20.494,8.457l1.078,11.445h22.163l1.078-11.445c7.185-1.493,14.151-4.294,20.494-8.458l8.829,7.309,15.672-15.672-7.309-8.829c4.164-6.343,6.965-13.309,8.456-20.494l11.443-1.078,.002-22.163-11.444-1.079c-1.492-7.184-4.294-14.15-8.458-20.493l7.31-8.829-15.672-15.672-8.829,7.309c-6.343-4.165-13.31-6.967-20.494-8.458l-1.079-11.444h-22.163l-1.078,11.445c-7.185,1.492-14.151,4.292-20.493,8.457l-8.829-7.31-15.672,15.672,7.31,8.829Zm70.49,13.017c11.401,11.401,11.402,29.888,0,41.29-11.403,11.403-29.89,11.401-41.291,0-11.402-11.402-11.402-29.888,0-41.291,11.402-11.402,29.887-11.402,41.29,0Z" style="fill:#8A2BE2;"></path></g><g id="freepik--Tab--inject-2"><path d="M176.749,332.599h352.79v12.436c0,1.801-1.462,3.263-3.263,3.263H180.87c-2.274,0-4.12-1.846-4.12-4.12v-11.58h0Z" style="opacity:.3;"></path><g><g><path d="M169.732,89.497h360.137c3.711,0,6.725,3.013,6.725,6.725v232.233c0,3.711-3.013,6.725-6.725,6.725H169.732c-3.711,0-6.725-3.013-6.725-6.725V96.222c0-3.711,3.013-6.724,6.724-6.724Z" style="fill:#8A2BE2;"></path><path d="M169.732,89.497h360.137c3.711,0,6.725,3.013,6.725,6.725v232.233c0,3.711-3.013,6.725-6.725,6.725H169.732c-3.711,0-6.725-3.013-6.725-6.725V96.222c0-3.711,3.013-6.724,6.724-6.724Z" style="fill:#fff; opacity:.6;"></path></g><path d="M536.663,109.689H163.008v-15.295c0-2.704,2.192-4.896,4.896-4.896h362.138c3.657,0,6.621,2.964,6.621,6.621v13.571Z" style="fill:#8A2BE2;"></path><path d="M529.681,99.096c.518,2.739-1.837,5.096-4.576,4.578-1.522-.288-2.767-1.532-3.056-3.054-.521-2.741,1.838-5.1,4.579-4.58,1.521,.289,2.766,1.534,3.054,3.056Z" style="fill:#fff;"></path><path d="M518.628,99.096c.519,2.74-1.838,5.097-4.577,4.578-1.522-.288-2.767-1.533-3.056-3.054-.52-2.74,1.838-5.099,4.578-4.579,1.522,.289,2.766,1.534,3.055,3.056Z" style="fill:#fff;"></path><path d="M507.576,99.096c.519,2.739-1.837,5.096-4.576,4.578-1.522-.288-2.767-1.532-3.056-3.054-.521-2.741,1.837-5.1,4.578-4.58,1.522,.289,2.766,1.534,3.054,3.056Z" style="fill:#fff;"></path><rect x="195.128" y="143.88" width="7.682" height="7.682" style="fill:#263238;"></rect><rect x="195.128" y="162.076" width="7.682" height="7.682" style="fill:#8A2BE2;"></rect><rect x="195.128" y="180.273" width="7.682" height="7.682" style="fill:#263238;"></rect><rect x="195.128" y="198.47" width="7.682" height="7.682" style="fill:#8A2BE2;"></rect><rect x="195.128" y="216.667" width="7.682" height="7.682" style="fill:#263238;"></rect><rect x="195.128" y="234.864" width="7.682" height="7.682" style="fill:#8A2BE2;"></rect><rect x="195.128" y="253.061" width="7.682" height="7.682" style="fill:#263238;"></rect><rect x="195.128" y="271.258" width="7.682" height="7.682" style="fill:#8A2BE2;"></rect><rect x="195.128" y="289.454" width="7.682" height="7.682" style="fill:#263238;"></rect><rect x="195.128" y="307.651" width="7.682" height="7.682" style="fill:#8A2BE2;"></rect><rect x="239.255" y="143.88" width="34.885" height="7.682" style="fill:#8A2BE2;"></rect><rect x="239.255" y="180.592" width="34.885" height="7.682" style="fill:#fff;"></rect><rect x="239.255" y="162.076" width="79.9" height="7.682" style="fill:#8A2BE2;"></rect><rect x="328.009" y="162.076" width="45.388" height="7.682" style="fill:#fff;"></rect><rect x="239.255" y="197.027" width="79.9" height="7.682" style="fill:#8A2BE2;"></rect><rect x="328.009" y="197.027" width="45.388" height="7.682" style="fill:#8A2BE2;"></rect><rect x="274.878" y="216.497" width="60.362" height="7.682" style="fill:#8A2BE2;"></rect><rect x="383.873" y="197.027" width="21.697" height="7.682" style="fill:#fff;"></rect><rect x="239.255" y="253.061" width="79.9" height="7.682" style="fill:#8A2BE2;"></rect><rect x="328.009" y="253.061" width="45.388" height="7.682" style="fill:#8A2BE2;"></rect><rect x="318.353" y="271.641" width="81.931" height="7.682" style="fill:#8A2BE2;"></rect><rect x="406.64" y="271.641" width="55.136" height="7.682" style="fill:#8A2BE2;"></rect><rect x="383.873" y="253.061" width="21.697" height="7.682" style="fill:#fff;"></rect><rect x="238.937" y="271.641" width="71.126" height="7.682" style="fill:#fff;"></rect><rect x="344.63" y="216.497" width="21.697" height="7.682" style="fill:#fff;"></rect><rect x="429.998" y="233.988" width="43.284" height="7.682" style="fill:#8A2BE2;"></rect><rect x="478.786" y="233.988" width="20.763" height="7.682" style="fill:#8A2BE2;"></rect><rect x="282.968" y="180.574" width="52.915" height="7.682" style="fill:#8A2BE2;"></rect><rect x="416.618" y="197.027" width="58.64" height="7.682" style="fill:#8A2BE2;"></rect><rect x="274.878" y="233.988" width="60.362" height="7.682" style="fill:#8A2BE2;"></rect><rect x="344.63" y="233.988" width="77.465" height="7.682" style="fill:#8A2BE2;"></rect><rect x="383.276" y="162.076" width="70.665" height="7.682" style="fill:#8A2BE2;"></rect><rect x="239.255" y="289.454" width="49.678" height="7.682" style="fill:#8A2BE2;"></rect><rect x="239.255" y="308.281" width="14.756" height="7.682" style="fill:#8A2BE2;"></rect><path d="M217.882,140.58v178.803c0,1.448,2.25,1.45,2.25,0V140.58c0-1.448-2.25-1.45-2.25,0h0Z" style="fill:#8A2BE2;"></path><g><path d="M439.533,82.288h-49.986c-.276,0-.5-.224-.5-.5s.224-.5,.5-.5h49.986c.276,0,.5,.224,.5,.5s-.224,.5-.5,.5Z" style="fill:#8A2BE2;"></path><path d="M457.353,82.288h-12.034c-.276,0-.5-.224-.5-.5s.224-.5,.5-.5h12.034c.276,0,.5,.224,.5,.5s-.224,.5-.5,.5Z" style="fill:#8A2BE2;"></path></g></g></g></svg>
